<svg width='400' height='400' viewBox='0 0 400 400'
    xmlns="http://www.w3.org/2000/svg"
    xmlns:xlink= "http://www.w3.org/1999/xlink">

    <!-- the clipping paths and masks will go here -->
    <!--
    Kevin Neri
    9 Sept 2019
    Apple Logo
    Mobile Apps SVCTE
    -->

    <defs>
        <clipPath id="green">
            <path d="M155 145
             C179 145 192 130 215 130
             C240 130 255 140 269 160
             C210 187 236 265 278 280
             C264 310 235 359 209 359
             C180 359 185 345 156 345
             C126 345 131 359 102 359
             C71 359 25 289 22 218
             C22 165 70 130 98 130
             C122 130 129 145 155 145"/>
        </clipPath>
            
    </defs>

    <!-- the shapes and stuff will go here -->

    <rect x='0' y='0' width='400' height='400' fill='beige' />
    <g transform="translate(20 -52) scale(1.2)" >
    
    <path d="M145 134
             C139 106 171 63 207 64
             C210 98 179 131 145 134 z"
          fill="#61bb46" 
          stroke="none"/>
    <path d="M155 145
             C179 145 192 130 215 130
             C240 130 255 140 269 160
             C210 187 236 265 278 280
             C264 310 235 359 209 359
             C180 359 185 345 156 345
             C126 345 131 359 101 359
             C71 359 25 289 22 218
             C22 165 70 130 98 130
             C122 130 129 145 155 145"
          fill="none"
          stroke="none"/>
    <rect x="0" y="130" height="39" width="400" fill="#61bb46" clip-path="url(#green)"/>
    <rect x="0" y="169" height="39" width="400" fill="#fdb827" clip-path="url(#green)"/>
    <rect x="0" y="208" height="39" width="400" fill="#f5821f" clip-path="url(#green)"/>
    <rect x="0" y="247" height="39" width="400" fill="#e03a3e" clip-path="url(#green)"/>
    <rect x="0" y="286" height="39" width="400" fill="#963d97" clip-path="url(#green)"/>
    <rect x="0" y="320" height="39" width="400" fill="#009ddc" clip-path="url(#green)"/>
        </g>
    
    

</svg>