<svg width='480' height='120' viewBox='0 0 480 120'
    xmlns="http://www.w3.org/2000/svg"
    xmlns:xlink= "http://www.w3.org/1999/xlink">

    <!-- the clipping paths and masks will go here -->

    <defs>
        <mask id="letters">
            <rect x='0' y='0' width='480' height='120' fill='white' />
                <g id="v" transform="translate(110 20)">
            <path d="M0 0
                     A80 80 1 0 0 80 80
                     L80 64 
                     A64 64 0 0 1 16 0
                     L0 0 z"
                  fill="black"/>
            <rect x="64" y="0" width="16" height="72"
                  fill="black"/>
        </g>
            <g id="t" transform="translate(290 20)">
        <path d="M16 0
                 A64 80 1 0 0 80 80
                 L80 64 
                 A48 64 0 0 1 32 0
                 L16 0 z"
              fill="black"/>
        <rect x="0" y="0" width="80" height="16"
              fill="black"/>
    </g>
            <g id="e" transform="translate(380 20)">
        <path d="M0 0
                 A80 80 1 0 0 80 80
                 L80 64 
                 A64 64 0 0 1 16 0
                 L0 0 z"
              fill="black"/>
        <rect x="8" y="0" width="72" height="16"
              fill="black"/>
        <rect x="20" y="32" width="44" height="16"
              fill="black"/>
    </g>
    <path id="s" transform="translate(20 20)"
          d="M80 0 
             L24 0
             A24 24 1 0 0 24 48
             L56 48
             A8 8 0 0 1 56 64
             L0 64 
             L0 80
             L56 80
             A24 24 1 0 0 56 32
             L24 32
             A8 8 0 0 1 24 16
             L80 16
             L80 0 z"
          fill="black"/>
    <path id="c" transform="translate(200 20)"
          d="M80 0
             L24 0
             A24 24 1 0 0 0 24
             L0 56 
             A24 24 1 0 0 24 80
             L 80 80 
             L80 64
             L24 64 
             A 8 8 0 0 1 16 56 
             L16 24 
             A8 8 0 0 1 24 16
             L80 16
             L80 0 z"
                fill="black"/>
        </mask>
        
        <linearGradient id="metal"
                        x1="0" y1="0"
                        x2="0" y2="1">
            <stop offset="0" stop-color="#a48"/>
            <stop offset="0.7" stop-color="#f47"/>
            <stop offset="1" stop-color="#a48"/>
        
        </linearGradient>
                        
                        
    </defs>

    <!-- the shapes and stuff will go here -->

    <rect x='0' y='0' width='480' height='120' fill='url(#metal)' mask="url(#letters)" />
    
    
    
    
    
</svg>
    
    
    
    
    
    
    
    
    
    
    